# xmcd
#
# Track frame offsets:
#	150
#	15510
#	30190
#	52920
#	69716
#	86749
#	105711
#	123723
#	142279
#	159371
#
# Disc length: 2355 seconds
#
# Revision: 1
# Processed by: cddbd v1.5.2PL0 Copyright (c) Steve Scherf et al.
# Submitted via: audiograbber 1.83.01
#
DISCID=8109310a
DTITLE=Mason, Cynthia G. - Quitter's Claim
DYEAR=2006
DGENRE=Folk-Rock
TTITLE0=Like a Lifer Out for Good
TTITLE1=Evergreen
TTITLE2=Breaks the Drill
TTITLE3=Fits and Starts
TTITLE4=Thrown
TTITLE5=Claim
TTITLE6=To and Fro
TTITLE7=Nerve
TTITLE8=The Way the Morning Came
TTITLE9=Quit While You're Misled
EXTD=
EXTT0=
EXTT1=
EXTT2=
EXTT3=
EXTT4=
EXTT5=
EXTT6=
EXTT7=
EXTT8=
EXTT9=
PLAYORDER=
